<svg id="visual" viewBox="0 0 900 200" width="900" height="200" xmlns="http://www.w3.org/2000/svg" xmlns:xlink="http://www.w3.org/1999/xlink" version="1.1"><path d="M0 117L21.5 123.3C43 129.7 86 142.3 128.8 142.8C171.7 143.3 214.3 131.7 257.2 123.2C300 114.7 343 109.3 385.8 111.8C428.7 114.3 471.3 124.7 514.2 133.3C557 142 600 149 642.8 146C685.7 143 728.3 130 771.2 126.8C814 123.7 857 130.3 878.5 133.7L900 137L900 0L878.5 0C857 0 814 0 771.2 0C728.3 0 685.7 0 642.8 0C600 0 557 0 514.2 0C471.3 0 428.7 0 385.8 0C343 0 300 0 257.2 0C214.3 0 171.7 0 128.8 0C86 0 43 0 21.5 0L0 0Z" fill="#79d9cf"></path><path d="M0 108L21.5 102.5C43 97 86 86 128.8 81.2C171.7 76.3 214.3 77.7 257.2 81C300 84.3 343 89.7 385.8 92.7C428.7 95.7 471.3 96.3 514.2 98.3C557 100.3 600 103.7 642.8 107C685.7 110.3 728.3 113.7 771.2 117.3C814 121 857 125 878.5 127L900 129L900 0L878.5 0C857 0 814 0 771.2 0C728.3 0 685.7 0 642.8 0C600 0 557 0 514.2 0C471.3 0 428.7 0 385.8 0C343 0 300 0 257.2 0C214.3 0 171.7 0 128.8 0C86 0 43 0 21.5 0L0 0Z" fill="#61c8c1"></path><path d="M0 65L21.5 61.5C43 58 86 51 128.8 53.8C171.7 56.7 214.3 69.3 257.2 71.7C300 74 343 66 385.8 61.8C428.7 57.7 471.3 57.3 514.2 59C557 60.7 600 64.3 642.8 66C685.7 67.7 728.3 67.3 771.2 65.2C814 63 857 59 878.5 57L900 55L900 0L878.5 0C857 0 814 0 771.2 0C728.3 0 685.7 0 642.8 0C600 0 557 0 514.2 0C471.3 0 428.7 0 385.8 0C343 0 300 0 257.2 0C214.3 0 171.7 0 128.8 0C86 0 43 0 21.5 0L0 0Z" fill="#47b7b3"></path><path d="M0 35L21.5 35C43 35 86 35 128.8 38.7C171.7 42.3 214.3 49.7 257.2 51C300 52.3 343 47.7 385.8 41.7C428.7 35.7 471.3 28.3 514.2 27.2C557 26 600 31 642.8 34.2C685.7 37.3 728.3 38.7 771.2 39.8C814 41 857 42 878.5 42.5L900 43L900 0L878.5 0C857 0 814 0 771.2 0C728.3 0 685.7 0 642.8 0C600 0 557 0 514.2 0C471.3 0 428.7 0 385.8 0C343 0 300 0 257.2 0C214.3 0 171.7 0 128.8 0C86 0 43 0 21.5 0L0 0Z" fill="#26a6a6"></path></svg>